<mxfile host="app.diagrams.net" modified="2023-06-02T07:43:37.873Z" agent="Mozilla/5.0 (X11; Linux x86_64) AppleWebKit/537.36 (KHTML, like Gecko) Chrome/112.0.0.0 Safari/537.36" etag="qBHLZIuEtUAFe0K_-lBK" version="21.3.4" type="device">
  <diagram id="4b9dIsP7ZebXHQJc3vsl" name="Page-1">
    <mxGraphModel dx="1349" dy="1094" grid="1" gridSize="10" guides="1" tooltips="1" connect="1" arrows="1" fold="1" page="1" pageScale="1" pageWidth="827" pageHeight="1169" math="0" shadow="0">
      <root>
        <mxCell id="0" />
        <mxCell id="1" parent="0" />
        <mxCell id="HQVciKcB6uAsC0LOoz2--17" value="" style="strokeWidth=2;html=1;shape=mxgraph.flowchart.start_2;whiteSpace=wrap;rounded=1;shadow=0;sketch=0;strokeColor=#000000;fillColor=default;gradientColor=none;" parent="1" vertex="1">
          <mxGeometry x="250" y="821" width="20" height="20" as="geometry" />
        </mxCell>
        <mxCell id="HQVciKcB6uAsC0LOoz2--32" value="&lt;font style=&quot;font-size: 18px;&quot;&gt;Input&lt;br&gt;&lt;font style=&quot;font-size: 18px;&quot;&gt;Embedding&lt;/font&gt;&lt;/font&gt;" style="rounded=1;whiteSpace=wrap;html=1;shadow=0;sketch=0;fillColor=#dae8fc;strokeColor=#000000;labelBackgroundColor=none;strokeWidth=3;" parent="1" vertex="1">
          <mxGeometry x="180" y="867" width="160" height="50" as="geometry" />
        </mxCell>
        <mxCell id="HQVciKcB6uAsC0LOoz2--35" value="&lt;font style=&quot;font-size: 18px;&quot;&gt;Input&lt;br&gt;&lt;/font&gt;" style="rounded=1;whiteSpace=wrap;html=1;shadow=0;sketch=0;labelBackgroundColor=none;strokeWidth=3;strokeColor=none;fillColor=none;" parent="1" vertex="1">
          <mxGeometry x="180" y="947" width="160" height="30" as="geometry" />
        </mxCell>
        <mxCell id="HQVciKcB6uAsC0LOoz2--36" value="" style="endArrow=openThin;html=1;entryX=0.5;entryY=1;entryDx=0;entryDy=0;exitX=0.5;exitY=0;exitDx=0;exitDy=0;strokeWidth=3;rounded=0;endFill=0;" parent="1" source="HQVciKcB6uAsC0LOoz2--35" target="HQVciKcB6uAsC0LOoz2--32" edge="1">
          <mxGeometry width="50" height="50" relative="1" as="geometry">
            <mxPoint x="389.76" y="677" as="sourcePoint" />
            <mxPoint x="389.76" y="637" as="targetPoint" />
          </mxGeometry>
        </mxCell>
        <mxCell id="HQVciKcB6uAsC0LOoz2--37" value="&lt;font style=&quot;font-size: 18px;&quot;&gt;Positional&lt;br&gt;Encoding&lt;br&gt;&lt;/font&gt;" style="rounded=1;whiteSpace=wrap;html=1;shadow=0;sketch=0;labelBackgroundColor=none;strokeWidth=3;strokeColor=#000000;fillColor=#dae8fc;" parent="1" vertex="1">
          <mxGeometry x="130" y="806" width="90" height="50" as="geometry" />
        </mxCell>
        <mxCell id="HQVciKcB6uAsC0LOoz2--43" value="" style="endArrow=openThin;html=1;entryX=0.5;entryY=1;entryDx=0;entryDy=0;exitX=0.5;exitY=0;exitDx=0;exitDy=0;strokeWidth=3;rounded=0;endFill=0;entryPerimeter=0;" parent="1" source="HQVciKcB6uAsC0LOoz2--32" target="HQVciKcB6uAsC0LOoz2--17" edge="1">
          <mxGeometry x="1" y="71" width="50" height="50" relative="1" as="geometry">
            <mxPoint x="245" y="857" as="sourcePoint" />
            <mxPoint x="245" y="827" as="targetPoint" />
            <mxPoint x="61" y="-70" as="offset" />
          </mxGeometry>
        </mxCell>
        <mxCell id="HQVciKcB6uAsC0LOoz2--44" value="" style="endArrow=openThin;html=1;strokeWidth=3;rounded=0;endFill=0;entryX=0;entryY=0.5;entryDx=0;entryDy=0;entryPerimeter=0;exitX=1;exitY=0.5;exitDx=0;exitDy=0;" parent="1" source="HQVciKcB6uAsC0LOoz2--37" target="HQVciKcB6uAsC0LOoz2--17" edge="1">
          <mxGeometry x="1" y="71" width="50" height="50" relative="1" as="geometry">
            <mxPoint x="220" y="832" as="sourcePoint" />
            <mxPoint x="250" y="857" as="targetPoint" />
            <mxPoint x="61" y="-70" as="offset" />
          </mxGeometry>
        </mxCell>
        <mxCell id="HQVciKcB6uAsC0LOoz2--45" value="" style="endArrow=openThin;html=1;entryX=0.5;entryY=1;entryDx=0;entryDy=0;strokeWidth=3;rounded=0;endFill=0;exitX=0.5;exitY=0;exitDx=0;exitDy=0;exitPerimeter=0;" parent="1" source="HQVciKcB6uAsC0LOoz2--17" target="HQVciKcB6uAsC0LOoz2--46" edge="1">
          <mxGeometry x="1" y="71" width="50" height="50" relative="1" as="geometry">
            <mxPoint x="240" y="817" as="sourcePoint" />
            <mxPoint x="250" y="857" as="targetPoint" />
            <mxPoint x="61" y="-70" as="offset" />
          </mxGeometry>
        </mxCell>
        <mxCell id="HQVciKcB6uAsC0LOoz2--55" value="" style="edgeStyle=orthogonalEdgeStyle;rounded=0;orthogonalLoop=1;jettySize=auto;html=1;strokeWidth=3;fontSize=18;endArrow=openThin;endFill=0;" parent="1" source="HQVciKcB6uAsC0LOoz2--46" target="HQVciKcB6uAsC0LOoz2--47" edge="1">
          <mxGeometry relative="1" as="geometry" />
        </mxCell>
        <mxCell id="HQVciKcB6uAsC0LOoz2--46" value="&lt;font size=&quot;4&quot;&gt;Dropout&lt;/font&gt;" style="rounded=1;whiteSpace=wrap;html=1;shadow=0;sketch=0;fillColor=#FFFFCC;strokeColor=#000000;labelBackgroundColor=none;strokeWidth=3;" parent="1" vertex="1">
          <mxGeometry x="180" y="765" width="160" height="30" as="geometry" />
        </mxCell>
        <mxCell id="HQVciKcB6uAsC0LOoz2--47" value="&lt;font size=&quot;4&quot;&gt;Transformer Block&lt;br&gt;&lt;/font&gt;" style="rounded=1;whiteSpace=wrap;html=1;shadow=0;sketch=0;fillColor=#ffe6cc;strokeColor=#000000;labelBackgroundColor=none;strokeWidth=3;" parent="1" vertex="1">
          <mxGeometry x="180" y="694" width="160" height="50" as="geometry" />
        </mxCell>
        <mxCell id="HQVciKcB6uAsC0LOoz2--48" value="&lt;font size=&quot;4&quot;&gt;LayerNorm&lt;br&gt;&lt;/font&gt;" style="rounded=1;whiteSpace=wrap;html=1;shadow=0;sketch=0;fillColor=#dae8fc;strokeColor=#000000;labelBackgroundColor=none;strokeWidth=3;" parent="1" vertex="1">
          <mxGeometry x="180" y="503" width="160" height="30" as="geometry" />
        </mxCell>
        <mxCell id="HQVciKcB6uAsC0LOoz2--50" value="&lt;font size=&quot;4&quot;&gt;Linear&lt;br&gt;&lt;/font&gt;" style="rounded=1;whiteSpace=wrap;html=1;shadow=0;sketch=0;fillColor=#dae8fc;strokeColor=#000000;labelBackgroundColor=none;strokeWidth=3;" parent="1" vertex="1">
          <mxGeometry x="180" y="431" width="160" height="50" as="geometry" />
        </mxCell>
        <mxCell id="HQVciKcB6uAsC0LOoz2--51" value="&lt;font size=&quot;4&quot;&gt;Transformer Block&lt;br&gt;&lt;/font&gt;" style="rounded=1;whiteSpace=wrap;html=1;shadow=0;sketch=0;fillColor=#ffe6cc;strokeColor=#000000;labelBackgroundColor=none;strokeWidth=3;" parent="1" vertex="1">
          <mxGeometry x="180" y="623" width="160" height="50" as="geometry" />
        </mxCell>
        <mxCell id="HQVciKcB6uAsC0LOoz2--52" value="&lt;font size=&quot;4&quot;&gt;Transformer Block&lt;br&gt;&lt;/font&gt;" style="rounded=1;whiteSpace=wrap;html=1;shadow=0;sketch=0;fillColor=#ffe6cc;strokeColor=#000000;labelBackgroundColor=none;strokeWidth=3;" parent="1" vertex="1">
          <mxGeometry x="180" y="553" width="160" height="50" as="geometry" />
        </mxCell>
        <mxCell id="HQVciKcB6uAsC0LOoz2--58" value="" style="endArrow=openThin;html=1;strokeWidth=3;rounded=0;endFill=0;entryX=0.5;entryY=1;entryDx=0;entryDy=0;" parent="1" source="HQVciKcB6uAsC0LOoz2--52" target="HQVciKcB6uAsC0LOoz2--48" edge="1">
          <mxGeometry x="1" y="71" width="50" height="50" relative="1" as="geometry">
            <mxPoint x="130" y="667" as="sourcePoint" />
            <mxPoint x="165" y="667" as="targetPoint" />
            <mxPoint x="61" y="-70" as="offset" />
          </mxGeometry>
        </mxCell>
        <mxCell id="HQVciKcB6uAsC0LOoz2--59" value="" style="endArrow=openThin;html=1;exitX=0.5;exitY=0;exitDx=0;exitDy=0;strokeWidth=3;rounded=0;endFill=0;entryX=0.5;entryY=1;entryDx=0;entryDy=0;" parent="1" source="HQVciKcB6uAsC0LOoz2--51" target="HQVciKcB6uAsC0LOoz2--52" edge="1">
          <mxGeometry x="1" y="71" width="50" height="50" relative="1" as="geometry">
            <mxPoint x="140" y="677" as="sourcePoint" />
            <mxPoint x="175" y="677" as="targetPoint" />
            <mxPoint x="61" y="-70" as="offset" />
          </mxGeometry>
        </mxCell>
        <mxCell id="HQVciKcB6uAsC0LOoz2--60" value="" style="endArrow=openThin;html=1;strokeWidth=3;rounded=0;endFill=0;entryX=0.5;entryY=1;entryDx=0;entryDy=0;exitX=0.5;exitY=0;exitDx=0;exitDy=0;" parent="1" source="HQVciKcB6uAsC0LOoz2--47" target="HQVciKcB6uAsC0LOoz2--51" edge="1">
          <mxGeometry x="1" y="71" width="50" height="50" relative="1" as="geometry">
            <mxPoint x="140" y="597" as="sourcePoint" />
            <mxPoint x="185" y="687" as="targetPoint" />
            <mxPoint x="61" y="-70" as="offset" />
          </mxGeometry>
        </mxCell>
        <mxCell id="HQVciKcB6uAsC0LOoz2--61" value="" style="endArrow=openThin;html=1;strokeWidth=3;rounded=0;endFill=0;entryX=0.5;entryY=1;entryDx=0;entryDy=0;" parent="1" source="HQVciKcB6uAsC0LOoz2--48" target="HQVciKcB6uAsC0LOoz2--50" edge="1">
          <mxGeometry x="1" y="71" width="50" height="50" relative="1" as="geometry">
            <mxPoint x="250" y="549" as="sourcePoint" />
            <mxPoint x="250" y="528" as="targetPoint" />
            <mxPoint x="61" y="-70" as="offset" />
          </mxGeometry>
        </mxCell>
        <mxCell id="HQVciKcB6uAsC0LOoz2--62" value="&lt;font style=&quot;font-size: 18px;&quot;&gt;Output&lt;br&gt;&lt;/font&gt;" style="rounded=1;whiteSpace=wrap;html=1;shadow=0;sketch=0;labelBackgroundColor=none;strokeWidth=3;strokeColor=none;fillColor=none;" parent="1" vertex="1">
          <mxGeometry x="180" y="326" width="160" height="31" as="geometry" />
        </mxCell>
        <mxCell id="HQVciKcB6uAsC0LOoz2--63" value="" style="endArrow=openThin;html=1;strokeWidth=3;rounded=0;endFill=0;entryX=0.5;entryY=1;entryDx=0;entryDy=0;exitX=0.5;exitY=0;exitDx=0;exitDy=0;" parent="1" source="oIwPzfI9AkTeWNETLoXm-1" target="HQVciKcB6uAsC0LOoz2--62" edge="1">
          <mxGeometry x="1" y="71" width="50" height="50" relative="1" as="geometry">
            <mxPoint x="260" y="365" as="sourcePoint" />
            <mxPoint x="250" y="387" as="targetPoint" />
            <mxPoint x="61" y="-70" as="offset" />
          </mxGeometry>
        </mxCell>
        <mxCell id="HQVciKcB6uAsC0LOoz2--162" value="&lt;font style=&quot;&quot;&gt;&lt;font color=&quot;#000000&quot; style=&quot;font-size: 12px;&quot;&gt;Layer L&lt;/font&gt;&lt;br&gt;&lt;/font&gt;" style="rounded=1;whiteSpace=wrap;html=1;shadow=0;sketch=0;labelBackgroundColor=none;strokeWidth=3;strokeColor=none;fillColor=none;fontColor=#FF99CC;" parent="1" vertex="1">
          <mxGeometry x="210" y="580" width="100" height="25" as="geometry" />
        </mxCell>
        <mxCell id="HQVciKcB6uAsC0LOoz2--163" value="&lt;font style=&quot;&quot;&gt;&lt;font color=&quot;#000000&quot; style=&quot;font-size: 12px;&quot;&gt;Layer ...&lt;/font&gt;&lt;br&gt;&lt;/font&gt;" style="rounded=1;whiteSpace=wrap;html=1;shadow=0;sketch=0;labelBackgroundColor=none;strokeWidth=3;strokeColor=none;fillColor=none;fontColor=#FF99CC;" parent="1" vertex="1">
          <mxGeometry x="211" y="650.5" width="100" height="25" as="geometry" />
        </mxCell>
        <mxCell id="HQVciKcB6uAsC0LOoz2--164" value="&lt;font style=&quot;&quot;&gt;&lt;font color=&quot;#000000&quot; style=&quot;font-size: 12px;&quot;&gt;Layer 1&lt;/font&gt;&lt;br&gt;&lt;/font&gt;" style="rounded=1;whiteSpace=wrap;html=1;shadow=0;sketch=0;labelBackgroundColor=none;strokeWidth=3;strokeColor=none;fillColor=none;fontColor=#FF99CC;" parent="1" vertex="1">
          <mxGeometry x="210" y="721" width="100" height="25" as="geometry" />
        </mxCell>
        <mxCell id="oIwPzfI9AkTeWNETLoXm-1" value="&lt;font size=&quot;4&quot;&gt;Softmax&lt;br&gt;&lt;/font&gt;" style="rounded=1;whiteSpace=wrap;html=1;shadow=0;sketch=0;fillColor=#d5e8d4;strokeColor=#000000;labelBackgroundColor=none;strokeWidth=3;" parent="1" vertex="1">
          <mxGeometry x="179.5" y="379" width="160" height="30" as="geometry" />
        </mxCell>
        <mxCell id="oIwPzfI9AkTeWNETLoXm-3" value="" style="endArrow=openThin;html=1;strokeWidth=3;rounded=0;endFill=0;entryX=0.5;entryY=1;entryDx=0;entryDy=0;" parent="1" source="HQVciKcB6uAsC0LOoz2--50" target="oIwPzfI9AkTeWNETLoXm-1" edge="1">
          <mxGeometry x="1" y="71" width="50" height="50" relative="1" as="geometry">
            <mxPoint x="270" y="513" as="sourcePoint" />
            <mxPoint x="270" y="491" as="targetPoint" />
            <mxPoint x="61" y="-70" as="offset" />
          </mxGeometry>
        </mxCell>
        <mxCell id="TFvU1HtMdlonxRWAqQK4-1" value="&lt;font size=&quot;4&quot;&gt;&lt;br&gt;&lt;/font&gt;" style="rounded=1;whiteSpace=wrap;html=1;shadow=0;sketch=0;fillColor=#ffe6cc;strokeColor=#000000;labelBackgroundColor=none;strokeWidth=3;" parent="1" vertex="1">
          <mxGeometry x="470" y="248" width="480" height="852" as="geometry" />
        </mxCell>
        <mxCell id="TFvU1HtMdlonxRWAqQK4-2" value="&lt;font style=&quot;font-size: 18px;&quot;&gt;Transformer Block Input&lt;br&gt;&lt;/font&gt;" style="rounded=1;whiteSpace=wrap;html=1;shadow=0;sketch=0;labelBackgroundColor=none;strokeWidth=3;strokeColor=none;fillColor=none;" parent="1" vertex="1">
          <mxGeometry x="544" y="1122" width="341" height="22" as="geometry" />
        </mxCell>
        <mxCell id="TFvU1HtMdlonxRWAqQK4-3" value="" style="endArrow=openThin;html=1;entryX=0.5;entryY=1;entryDx=0;entryDy=0;exitX=0.5;exitY=0;exitDx=0;exitDy=0;strokeWidth=3;rounded=0;endFill=0;" parent="1" source="TFvU1HtMdlonxRWAqQK4-47" edge="1">
          <mxGeometry width="50" height="50" relative="1" as="geometry">
            <mxPoint x="714" y="1056" as="sourcePoint" />
            <mxPoint x="714" y="1008" as="targetPoint" />
          </mxGeometry>
        </mxCell>
        <mxCell id="TFvU1HtMdlonxRWAqQK4-4" value="" style="endArrow=openThin;html=1;entryX=0.75;entryY=1;entryDx=0;entryDy=0;strokeWidth=3;rounded=0;endFill=0;strokeColor=#000000;exitX=0.177;exitY=0.01;exitDx=0;exitDy=0;exitPerimeter=0;" parent="1" target="TFvU1HtMdlonxRWAqQK4-5" edge="1">
          <mxGeometry x="1" y="71" width="50" height="50" relative="1" as="geometry">
            <mxPoint x="604.1800000000003" y="958.5" as="sourcePoint" />
            <mxPoint x="604" y="915" as="targetPoint" />
            <mxPoint x="61" y="-70" as="offset" />
          </mxGeometry>
        </mxCell>
        <mxCell id="TFvU1HtMdlonxRWAqQK4-5" value="&lt;font style=&quot;font-size: 18px;&quot;&gt;Matmul&lt;/font&gt;" style="rounded=1;whiteSpace=wrap;html=1;shadow=0;sketch=0;fillColor=#FFFFCC;strokeColor=#000000;labelBackgroundColor=none;strokeWidth=3;" parent="1" vertex="1">
          <mxGeometry x="544" y="908" width="80" height="30" as="geometry" />
        </mxCell>
        <mxCell id="TFvU1HtMdlonxRWAqQK4-6" value="" style="endArrow=openThin;html=1;entryX=0.363;entryY=1;entryDx=0;entryDy=0;exitX=0.085;exitY=-0.02;exitDx=0;exitDy=0;strokeWidth=3;rounded=0;endFill=0;entryPerimeter=0;exitPerimeter=0;strokeColor=#000000;" parent="1" target="TFvU1HtMdlonxRWAqQK4-5" edge="1">
          <mxGeometry x="1" y="71" width="50" height="50" relative="1" as="geometry">
            <mxPoint x="572.9000000000001" y="957" as="sourcePoint" />
            <mxPoint x="564" y="915" as="targetPoint" />
            <mxPoint x="61" y="-70" as="offset" />
          </mxGeometry>
        </mxCell>
        <mxCell id="TFvU1HtMdlonxRWAqQK4-7" value="" style="endArrow=openThin;html=1;entryX=0.89;entryY=0.98;entryDx=0;entryDy=0;strokeWidth=3;rounded=0;endFill=0;entryPerimeter=0;exitX=0.268;exitY=-0.03;exitDx=0;exitDy=0;exitPerimeter=0;strokeColor=#000000;" parent="1" target="TFvU1HtMdlonxRWAqQK4-10" edge="1">
          <mxGeometry x="1" y="71" width="50" height="50" relative="1" as="geometry">
            <mxPoint x="635.1199999999999" y="956.5" as="sourcePoint" />
            <mxPoint x="634" y="910" as="targetPoint" />
            <mxPoint x="61" y="-70" as="offset" />
          </mxGeometry>
        </mxCell>
        <mxCell id="TFvU1HtMdlonxRWAqQK4-8" value="&lt;font style=&quot;font-size: 18px;&quot;&gt;Mask&lt;/font&gt;" style="rounded=1;whiteSpace=wrap;html=1;shadow=0;sketch=0;fillColor=#FFFFCC;strokeColor=#000000;labelBackgroundColor=none;strokeWidth=3;" parent="1" vertex="1">
          <mxGeometry x="544" y="858" width="80" height="30" as="geometry" />
        </mxCell>
        <mxCell id="TFvU1HtMdlonxRWAqQK4-9" value="&lt;font style=&quot;font-size: 18px;&quot;&gt;Softmax&lt;/font&gt;" style="rounded=1;whiteSpace=wrap;html=1;shadow=0;sketch=0;fillColor=#FFFFCC;strokeColor=#000000;labelBackgroundColor=none;strokeWidth=3;" parent="1" vertex="1">
          <mxGeometry x="544" y="808" width="80" height="30" as="geometry" />
        </mxCell>
        <mxCell id="TFvU1HtMdlonxRWAqQK4-10" value="&lt;font style=&quot;font-size: 18px;&quot;&gt;Matmul&lt;/font&gt;" style="rounded=1;whiteSpace=wrap;html=1;shadow=0;sketch=0;fillColor=#FFFFCC;strokeColor=#000000;labelBackgroundColor=none;strokeWidth=3;" parent="1" vertex="1">
          <mxGeometry x="544" y="708" width="100" height="30" as="geometry" />
        </mxCell>
        <mxCell id="TFvU1HtMdlonxRWAqQK4-11" value="&lt;font size=&quot;4&quot;&gt;LayerNorm&lt;/font&gt;" style="rounded=1;whiteSpace=wrap;html=1;shadow=0;sketch=0;fillColor=#dae8fc;strokeColor=#000000;labelBackgroundColor=none;strokeWidth=3;" parent="1" vertex="1">
          <mxGeometry x="634.5" y="553.5" width="160" height="30" as="geometry" />
        </mxCell>
        <mxCell id="TFvU1HtMdlonxRWAqQK4-12" value="" style="endArrow=openThin;html=1;entryX=0.5;entryY=1;entryDx=0;entryDy=0;strokeWidth=3;rounded=0;endFill=0;fillColor=#fff2cc;strokeColor=#000000;" parent="1" source="TFvU1HtMdlonxRWAqQK4-5" target="TFvU1HtMdlonxRWAqQK4-8" edge="1">
          <mxGeometry x="1" y="71" width="50" height="50" relative="1" as="geometry">
            <mxPoint x="574" y="945" as="sourcePoint" />
            <mxPoint x="574" y="925" as="targetPoint" />
            <mxPoint x="61" y="-70" as="offset" />
          </mxGeometry>
        </mxCell>
        <mxCell id="TFvU1HtMdlonxRWAqQK4-13" value="" style="endArrow=openThin;html=1;entryX=0.5;entryY=1;entryDx=0;entryDy=0;exitX=0.5;exitY=0;exitDx=0;exitDy=0;strokeWidth=3;rounded=0;endFill=0;fillColor=#fff2cc;strokeColor=#000000;" parent="1" source="TFvU1HtMdlonxRWAqQK4-8" target="TFvU1HtMdlonxRWAqQK4-9" edge="1">
          <mxGeometry x="1" y="71" width="50" height="50" relative="1" as="geometry">
            <mxPoint x="594" y="874" as="sourcePoint" />
            <mxPoint x="594" y="854" as="targetPoint" />
            <mxPoint x="61" y="-70" as="offset" />
          </mxGeometry>
        </mxCell>
        <mxCell id="TFvU1HtMdlonxRWAqQK4-14" value="" style="endArrow=openThin;html=1;exitX=0.5;exitY=0;exitDx=0;exitDy=0;strokeWidth=3;rounded=0;endFill=0;entryX=0.403;entryY=0.985;entryDx=0;entryDy=0;entryPerimeter=0;fillColor=#fff2cc;strokeColor=#000000;" parent="1" source="TFvU1HtMdlonxRWAqQK4-39" target="TFvU1HtMdlonxRWAqQK4-10" edge="1">
          <mxGeometry x="1" y="71" width="50" height="50" relative="1" as="geometry">
            <mxPoint x="594" y="811" as="sourcePoint" />
            <mxPoint x="594" y="791" as="targetPoint" />
            <mxPoint x="61" y="-70" as="offset" />
          </mxGeometry>
        </mxCell>
        <mxCell id="TFvU1HtMdlonxRWAqQK4-15" value="" style="endArrow=openThin;html=1;entryX=0.75;entryY=1;entryDx=0;entryDy=0;strokeWidth=3;rounded=0;endFill=0;strokeColor=#000000;exitX=0.532;exitY=-0.005;exitDx=0;exitDy=0;exitPerimeter=0;" parent="1" target="TFvU1HtMdlonxRWAqQK4-16" edge="1">
          <mxGeometry x="1" y="71" width="50" height="50" relative="1" as="geometry">
            <mxPoint x="724.8800000000001" y="957.75" as="sourcePoint" />
            <mxPoint x="725" y="915" as="targetPoint" />
            <mxPoint x="61" y="-70" as="offset" />
          </mxGeometry>
        </mxCell>
        <mxCell id="TFvU1HtMdlonxRWAqQK4-16" value="&lt;font style=&quot;font-size: 18px;&quot;&gt;Matmul&lt;/font&gt;" style="rounded=1;whiteSpace=wrap;html=1;shadow=0;sketch=0;fillColor=#FFFFCC;strokeColor=#000000;labelBackgroundColor=none;strokeWidth=3;" parent="1" vertex="1">
          <mxGeometry x="665" y="908" width="80" height="30" as="geometry" />
        </mxCell>
        <mxCell id="TFvU1HtMdlonxRWAqQK4-17" value="" style="endArrow=openThin;html=1;entryX=0.363;entryY=1;entryDx=0;entryDy=0;exitX=0.443;exitY=0.007;exitDx=0;exitDy=0;strokeWidth=3;rounded=0;endFill=0;entryPerimeter=0;exitPerimeter=0;strokeColor=#000000;" parent="1" target="TFvU1HtMdlonxRWAqQK4-16" edge="1">
          <mxGeometry x="1" y="71" width="50" height="50" relative="1" as="geometry">
            <mxPoint x="694.6199999999999" y="958.3500000000001" as="sourcePoint" />
            <mxPoint x="685" y="915" as="targetPoint" />
            <mxPoint x="61" y="-70" as="offset" />
          </mxGeometry>
        </mxCell>
        <mxCell id="TFvU1HtMdlonxRWAqQK4-18" value="" style="endArrow=openThin;html=1;entryX=0.89;entryY=0.98;entryDx=0;entryDy=0;strokeWidth=3;rounded=0;endFill=0;entryPerimeter=0;strokeColor=#000000;exitX=0.62;exitY=0;exitDx=0;exitDy=0;exitPerimeter=0;" parent="1" target="TFvU1HtMdlonxRWAqQK4-21" edge="1">
          <mxGeometry x="1" y="71" width="50" height="50" relative="1" as="geometry">
            <mxPoint x="754.8000000000002" y="958" as="sourcePoint" />
            <mxPoint x="755" y="910" as="targetPoint" />
            <mxPoint x="61" y="-70" as="offset" />
          </mxGeometry>
        </mxCell>
        <mxCell id="TFvU1HtMdlonxRWAqQK4-19" value="&lt;font style=&quot;font-size: 18px;&quot;&gt;Mask&lt;/font&gt;" style="rounded=1;whiteSpace=wrap;html=1;shadow=0;sketch=0;fillColor=#FFFFCC;strokeColor=#000000;labelBackgroundColor=none;strokeWidth=3;" parent="1" vertex="1">
          <mxGeometry x="665" y="858" width="80" height="30" as="geometry" />
        </mxCell>
        <mxCell id="TFvU1HtMdlonxRWAqQK4-20" value="&lt;font style=&quot;font-size: 18px;&quot;&gt;Softmax&lt;/font&gt;" style="rounded=1;whiteSpace=wrap;html=1;shadow=0;sketch=0;fillColor=#FFFFCC;strokeColor=#000000;labelBackgroundColor=none;strokeWidth=3;" parent="1" vertex="1">
          <mxGeometry x="665" y="808" width="80" height="30" as="geometry" />
        </mxCell>
        <mxCell id="TFvU1HtMdlonxRWAqQK4-21" value="&lt;font style=&quot;font-size: 18px;&quot;&gt;Matmul&lt;/font&gt;" style="rounded=1;whiteSpace=wrap;html=1;shadow=0;sketch=0;fillColor=#FFFFCC;strokeColor=#000000;labelBackgroundColor=none;strokeWidth=3;" parent="1" vertex="1">
          <mxGeometry x="665" y="708" width="100" height="30" as="geometry" />
        </mxCell>
        <mxCell id="TFvU1HtMdlonxRWAqQK4-22" value="" style="endArrow=openThin;html=1;entryX=0.5;entryY=1;entryDx=0;entryDy=0;exitX=0.5;exitY=0;exitDx=0;exitDy=0;strokeWidth=3;rounded=0;endFill=0;fillColor=#fff2cc;strokeColor=#000000;" parent="1" source="TFvU1HtMdlonxRWAqQK4-16" target="TFvU1HtMdlonxRWAqQK4-19" edge="1">
          <mxGeometry x="1" y="71" width="50" height="50" relative="1" as="geometry">
            <mxPoint x="695" y="945" as="sourcePoint" />
            <mxPoint x="695" y="925" as="targetPoint" />
            <mxPoint x="61" y="-70" as="offset" />
          </mxGeometry>
        </mxCell>
        <mxCell id="TFvU1HtMdlonxRWAqQK4-23" value="" style="endArrow=openThin;html=1;entryX=0.5;entryY=1;entryDx=0;entryDy=0;exitX=0.5;exitY=0;exitDx=0;exitDy=0;strokeWidth=3;rounded=0;endFill=0;fillColor=#fff2cc;strokeColor=#000000;" parent="1" source="TFvU1HtMdlonxRWAqQK4-19" target="TFvU1HtMdlonxRWAqQK4-20" edge="1">
          <mxGeometry x="1" y="71" width="50" height="50" relative="1" as="geometry">
            <mxPoint x="715" y="874" as="sourcePoint" />
            <mxPoint x="715" y="854" as="targetPoint" />
            <mxPoint x="61" y="-70" as="offset" />
          </mxGeometry>
        </mxCell>
        <mxCell id="TFvU1HtMdlonxRWAqQK4-24" value="" style="endArrow=openThin;html=1;exitX=0.5;exitY=0;exitDx=0;exitDy=0;strokeWidth=3;rounded=0;endFill=0;entryX=0.395;entryY=0.995;entryDx=0;entryDy=0;entryPerimeter=0;fillColor=#fff2cc;strokeColor=#000000;" parent="1" source="TFvU1HtMdlonxRWAqQK4-40" target="TFvU1HtMdlonxRWAqQK4-21" edge="1">
          <mxGeometry x="1" y="71" width="50" height="50" relative="1" as="geometry">
            <mxPoint x="715" y="811" as="sourcePoint" />
            <mxPoint x="715" y="791" as="targetPoint" />
            <mxPoint x="61" y="-70" as="offset" />
          </mxGeometry>
        </mxCell>
        <mxCell id="TFvU1HtMdlonxRWAqQK4-25" value="" style="endArrow=openThin;html=1;entryX=0.75;entryY=1;entryDx=0;entryDy=0;exitX=0.881;exitY=0.02;exitDx=0;exitDy=0;strokeWidth=3;rounded=0;endFill=0;strokeColor=#000000;exitPerimeter=0;" parent="1" target="TFvU1HtMdlonxRWAqQK4-26" edge="1">
          <mxGeometry x="1" y="71" width="50" height="50" relative="1" as="geometry">
            <mxPoint x="843.54" y="959" as="sourcePoint" />
            <mxPoint x="844" y="915" as="targetPoint" />
            <mxPoint x="61" y="-70" as="offset" />
          </mxGeometry>
        </mxCell>
        <mxCell id="TFvU1HtMdlonxRWAqQK4-26" value="&lt;font style=&quot;font-size: 18px;&quot;&gt;Matmul&lt;/font&gt;" style="rounded=1;whiteSpace=wrap;html=1;shadow=0;sketch=0;fillColor=#FFFFCC;strokeColor=#000000;labelBackgroundColor=none;strokeWidth=3;" parent="1" vertex="1">
          <mxGeometry x="784" y="908" width="80" height="30" as="geometry" />
        </mxCell>
        <mxCell id="TFvU1HtMdlonxRWAqQK4-27" value="" style="endArrow=openThin;html=1;entryX=0.35;entryY=1.025;entryDx=0;entryDy=0;strokeWidth=3;rounded=0;endFill=0;entryPerimeter=0;strokeColor=#000000;exitX=0.788;exitY=0;exitDx=0;exitDy=0;exitPerimeter=0;" parent="1" target="TFvU1HtMdlonxRWAqQK4-26" edge="1">
          <mxGeometry x="1" y="71" width="50" height="50" relative="1" as="geometry">
            <mxPoint x="811.9200000000001" y="958" as="sourcePoint" />
            <mxPoint x="804" y="915" as="targetPoint" />
            <mxPoint x="61" y="-70" as="offset" />
          </mxGeometry>
        </mxCell>
        <mxCell id="TFvU1HtMdlonxRWAqQK4-28" value="" style="endArrow=openThin;html=1;entryX=0.89;entryY=0.98;entryDx=0;entryDy=0;strokeWidth=3;rounded=0;endFill=0;entryPerimeter=0;strokeColor=#000000;exitX=0.973;exitY=-0.005;exitDx=0;exitDy=0;exitPerimeter=0;" parent="1" target="TFvU1HtMdlonxRWAqQK4-31" edge="1">
          <mxGeometry x="1" y="71" width="50" height="50" relative="1" as="geometry">
            <mxPoint x="874.8200000000002" y="957.75" as="sourcePoint" />
            <mxPoint x="874" y="910" as="targetPoint" />
            <mxPoint x="61" y="-70" as="offset" />
          </mxGeometry>
        </mxCell>
        <mxCell id="TFvU1HtMdlonxRWAqQK4-29" value="&lt;font style=&quot;font-size: 18px;&quot;&gt;Mask&lt;/font&gt;" style="rounded=1;whiteSpace=wrap;html=1;shadow=0;sketch=0;fillColor=#FFFFCC;strokeColor=#000000;labelBackgroundColor=none;strokeWidth=3;" parent="1" vertex="1">
          <mxGeometry x="784" y="858" width="80" height="30" as="geometry" />
        </mxCell>
        <mxCell id="TFvU1HtMdlonxRWAqQK4-30" value="&lt;font style=&quot;font-size: 18px;&quot;&gt;Softmax&lt;/font&gt;" style="rounded=1;whiteSpace=wrap;html=1;shadow=0;sketch=0;fillColor=#FFFFCC;strokeColor=#000000;labelBackgroundColor=none;strokeWidth=3;" parent="1" vertex="1">
          <mxGeometry x="784" y="808" width="80" height="30" as="geometry" />
        </mxCell>
        <mxCell id="TFvU1HtMdlonxRWAqQK4-31" value="&lt;font style=&quot;font-size: 18px;&quot;&gt;Matmul&lt;/font&gt;" style="rounded=1;whiteSpace=wrap;html=1;shadow=0;sketch=0;fillColor=#FFFFCC;strokeColor=#000000;labelBackgroundColor=none;strokeWidth=3;" parent="1" vertex="1">
          <mxGeometry x="784" y="708" width="100" height="30" as="geometry" />
        </mxCell>
        <mxCell id="TFvU1HtMdlonxRWAqQK4-32" value="" style="endArrow=openThin;html=1;entryX=0.5;entryY=1;entryDx=0;entryDy=0;exitX=0.5;exitY=0;exitDx=0;exitDy=0;strokeWidth=3;rounded=0;endFill=0;fillColor=#fff2cc;strokeColor=#000000;" parent="1" source="TFvU1HtMdlonxRWAqQK4-26" target="TFvU1HtMdlonxRWAqQK4-29" edge="1">
          <mxGeometry x="1" y="71" width="50" height="50" relative="1" as="geometry">
            <mxPoint x="814" y="945" as="sourcePoint" />
            <mxPoint x="814" y="925" as="targetPoint" />
            <mxPoint x="61" y="-70" as="offset" />
          </mxGeometry>
        </mxCell>
        <mxCell id="TFvU1HtMdlonxRWAqQK4-33" value="" style="endArrow=openThin;html=1;entryX=0.5;entryY=1;entryDx=0;entryDy=0;exitX=0.5;exitY=0;exitDx=0;exitDy=0;strokeWidth=3;rounded=0;endFill=0;fillColor=#fff2cc;strokeColor=#000000;" parent="1" source="TFvU1HtMdlonxRWAqQK4-29" target="TFvU1HtMdlonxRWAqQK4-30" edge="1">
          <mxGeometry x="1" y="71" width="50" height="50" relative="1" as="geometry">
            <mxPoint x="834" y="874" as="sourcePoint" />
            <mxPoint x="834" y="854" as="targetPoint" />
            <mxPoint x="61" y="-70" as="offset" />
          </mxGeometry>
        </mxCell>
        <mxCell id="TFvU1HtMdlonxRWAqQK4-34" value="" style="endArrow=openThin;html=1;exitX=0.5;exitY=0;exitDx=0;exitDy=0;strokeWidth=3;rounded=0;endFill=0;entryX=0.395;entryY=0.985;entryDx=0;entryDy=0;entryPerimeter=0;fillColor=#fff2cc;strokeColor=#000000;" parent="1" source="TFvU1HtMdlonxRWAqQK4-41" target="TFvU1HtMdlonxRWAqQK4-31" edge="1">
          <mxGeometry x="1" y="71" width="50" height="50" relative="1" as="geometry">
            <mxPoint x="834" y="811" as="sourcePoint" />
            <mxPoint x="834" y="791" as="targetPoint" />
            <mxPoint x="61" y="-70" as="offset" />
          </mxGeometry>
        </mxCell>
        <mxCell id="TFvU1HtMdlonxRWAqQK4-35" value="" style="endArrow=openThin;html=1;entryX=0.15;entryY=1.005;entryDx=0;entryDy=0;strokeWidth=3;rounded=0;endFill=0;exitX=0.5;exitY=0;exitDx=0;exitDy=0;entryPerimeter=0;" parent="1" source="TFvU1HtMdlonxRWAqQK4-10" target="TFvU1HtMdlonxRWAqQK4-61" edge="1">
          <mxGeometry x="1" y="71" width="50" height="50" relative="1" as="geometry">
            <mxPoint x="645.1199999999999" y="876.5" as="sourcePoint" />
            <mxPoint x="594.98" y="688" as="targetPoint" />
            <mxPoint x="61" y="-70" as="offset" />
          </mxGeometry>
        </mxCell>
        <mxCell id="TFvU1HtMdlonxRWAqQK4-36" value="" style="endArrow=openThin;html=1;entryX=0.5;entryY=1;entryDx=0;entryDy=0;strokeWidth=3;rounded=0;endFill=0;exitX=0.5;exitY=0;exitDx=0;exitDy=0;" parent="1" source="TFvU1HtMdlonxRWAqQK4-21" target="TFvU1HtMdlonxRWAqQK4-61" edge="1">
          <mxGeometry x="1" y="71" width="50" height="50" relative="1" as="geometry">
            <mxPoint x="604" y="592" as="sourcePoint" />
            <mxPoint x="715" y="689" as="targetPoint" />
            <mxPoint x="61" y="-70" as="offset" />
          </mxGeometry>
        </mxCell>
        <mxCell id="TFvU1HtMdlonxRWAqQK4-37" value="" style="endArrow=openThin;html=1;entryX=0.845;entryY=1.005;entryDx=0;entryDy=0;strokeWidth=3;rounded=0;endFill=0;entryPerimeter=0;exitX=0.5;exitY=0;exitDx=0;exitDy=0;" parent="1" source="TFvU1HtMdlonxRWAqQK4-31" target="TFvU1HtMdlonxRWAqQK4-61" edge="1">
          <mxGeometry x="1" y="71" width="50" height="50" relative="1" as="geometry">
            <mxPoint x="834" y="578" as="sourcePoint" />
            <mxPoint x="827.5400000000004" y="689.3500000000001" as="targetPoint" />
            <mxPoint x="61" y="-70" as="offset" />
          </mxGeometry>
        </mxCell>
        <mxCell id="TFvU1HtMdlonxRWAqQK4-38" value="&lt;font style=&quot;font-size: 18px;&quot;&gt;Transformer Block Ouptut&lt;br&gt;&lt;/font&gt;" style="rounded=1;whiteSpace=wrap;html=1;shadow=0;sketch=0;labelBackgroundColor=none;strokeWidth=3;strokeColor=none;fillColor=none;" parent="1" vertex="1">
          <mxGeometry x="544" y="200" width="340" height="26" as="geometry" />
        </mxCell>
        <mxCell id="TFvU1HtMdlonxRWAqQK4-39" value="&lt;font style=&quot;font-size: 18px;&quot;&gt;Dropout&lt;/font&gt;" style="rounded=1;whiteSpace=wrap;html=1;shadow=0;sketch=0;fillColor=#FFFFCC;strokeColor=#000000;labelBackgroundColor=none;strokeWidth=3;" parent="1" vertex="1">
          <mxGeometry x="544" y="758" width="80" height="30" as="geometry" />
        </mxCell>
        <mxCell id="TFvU1HtMdlonxRWAqQK4-40" value="&lt;font style=&quot;font-size: 18px;&quot;&gt;Dropout&lt;/font&gt;" style="rounded=1;whiteSpace=wrap;html=1;shadow=0;sketch=0;fillColor=#FFFFCC;strokeColor=#000000;labelBackgroundColor=none;strokeWidth=3;" parent="1" vertex="1">
          <mxGeometry x="665" y="758" width="80" height="30" as="geometry" />
        </mxCell>
        <mxCell id="TFvU1HtMdlonxRWAqQK4-41" value="&lt;font style=&quot;font-size: 18px;&quot;&gt;Dropout&lt;/font&gt;" style="rounded=1;whiteSpace=wrap;html=1;shadow=0;sketch=0;fillColor=#FFFFCC;strokeColor=#000000;labelBackgroundColor=none;strokeWidth=3;" parent="1" vertex="1">
          <mxGeometry x="784" y="758" width="80" height="30" as="geometry" />
        </mxCell>
        <mxCell id="TFvU1HtMdlonxRWAqQK4-42" value="" style="endArrow=openThin;html=1;entryX=0.5;entryY=1;entryDx=0;entryDy=0;strokeWidth=3;rounded=0;endFill=0;fillColor=#fff2cc;strokeColor=#000000;exitX=0.5;exitY=0;exitDx=0;exitDy=0;" parent="1" source="TFvU1HtMdlonxRWAqQK4-9" target="TFvU1HtMdlonxRWAqQK4-39" edge="1">
          <mxGeometry x="1" y="71" width="50" height="50" relative="1" as="geometry">
            <mxPoint x="585" y="716" as="sourcePoint" />
            <mxPoint x="594" y="784" as="targetPoint" />
            <mxPoint x="61" y="-70" as="offset" />
          </mxGeometry>
        </mxCell>
        <mxCell id="TFvU1HtMdlonxRWAqQK4-43" value="" style="endArrow=openThin;html=1;entryX=0.5;entryY=1;entryDx=0;entryDy=0;strokeWidth=3;rounded=0;endFill=0;fillColor=#fff2cc;strokeColor=#000000;exitX=0.5;exitY=0;exitDx=0;exitDy=0;" parent="1" source="TFvU1HtMdlonxRWAqQK4-20" target="TFvU1HtMdlonxRWAqQK4-40" edge="1">
          <mxGeometry x="1" y="71" width="50" height="50" relative="1" as="geometry">
            <mxPoint x="594" y="734" as="sourcePoint" />
            <mxPoint x="595" y="708" as="targetPoint" />
            <mxPoint x="61" y="-70" as="offset" />
          </mxGeometry>
        </mxCell>
        <mxCell id="TFvU1HtMdlonxRWAqQK4-44" value="" style="endArrow=openThin;html=1;entryX=0.5;entryY=1;entryDx=0;entryDy=0;strokeWidth=3;rounded=0;endFill=0;fillColor=#fff2cc;strokeColor=#000000;" parent="1" source="TFvU1HtMdlonxRWAqQK4-30" target="TFvU1HtMdlonxRWAqQK4-41" edge="1">
          <mxGeometry x="1" y="71" width="50" height="50" relative="1" as="geometry">
            <mxPoint x="715" y="734" as="sourcePoint" />
            <mxPoint x="716" y="708" as="targetPoint" />
            <mxPoint x="61" y="-70" as="offset" />
          </mxGeometry>
        </mxCell>
        <mxCell id="TFvU1HtMdlonxRWAqQK4-45" value="&lt;font size=&quot;4&quot;&gt;Dropout&lt;/font&gt;" style="rounded=1;whiteSpace=wrap;html=1;shadow=0;sketch=0;fillColor=#FFFFCC;strokeColor=#000000;labelBackgroundColor=none;strokeWidth=3;" parent="1" vertex="1">
          <mxGeometry x="634.5" y="305" width="160" height="30" as="geometry" />
        </mxCell>
        <mxCell id="TFvU1HtMdlonxRWAqQK4-46" value="&lt;font size=&quot;4&quot;&gt;Gelu&lt;/font&gt;" style="rounded=1;whiteSpace=wrap;html=1;shadow=0;sketch=0;fillColor=#FFFFCC;strokeColor=#000000;labelBackgroundColor=none;strokeWidth=3;" parent="1" vertex="1">
          <mxGeometry x="544" y="423" width="340" height="28" as="geometry" />
        </mxCell>
        <mxCell id="TFvU1HtMdlonxRWAqQK4-47" value="&lt;font size=&quot;4&quot;&gt;LayerNorm&lt;/font&gt;" style="rounded=1;whiteSpace=wrap;html=1;shadow=0;sketch=0;fillColor=#dae8fc;strokeColor=#000000;labelBackgroundColor=none;strokeWidth=3;" parent="1" vertex="1">
          <mxGeometry x="634" y="1028" width="160" height="30" as="geometry" />
        </mxCell>
        <mxCell id="TFvU1HtMdlonxRWAqQK4-48" value="" style="endArrow=openThin;html=1;strokeWidth=3;rounded=0;endFill=0;entryX=1;entryY=0.5;entryDx=0;entryDy=0;entryPerimeter=0;" parent="1" target="TFvU1HtMdlonxRWAqQK4-49" edge="1">
          <mxGeometry width="50" height="50" relative="1" as="geometry">
            <mxPoint x="715" y="1082" as="sourcePoint" />
            <mxPoint x="730" y="611" as="targetPoint" />
            <Array as="points">
              <mxPoint x="910" y="1078" />
              <mxPoint x="910" y="611" />
            </Array>
          </mxGeometry>
        </mxCell>
        <mxCell id="TFvU1HtMdlonxRWAqQK4-49" value="" style="strokeWidth=2;html=1;shape=mxgraph.flowchart.start_2;whiteSpace=wrap;rounded=1;shadow=0;sketch=0;strokeColor=#000000;fillColor=default;gradientColor=none;" parent="1" vertex="1">
          <mxGeometry x="705" y="601" width="20" height="20" as="geometry" />
        </mxCell>
        <mxCell id="TFvU1HtMdlonxRWAqQK4-52" value="" style="endArrow=openThin;html=1;strokeWidth=3;rounded=0;endFill=0;entryX=0.5;entryY=1;entryDx=0;entryDy=0;exitX=0.5;exitY=0;exitDx=0;exitDy=0;" parent="1" source="TFvU1HtMdlonxRWAqQK4-66" target="TFvU1HtMdlonxRWAqQK4-45" edge="1">
          <mxGeometry width="50" height="50" relative="1" as="geometry">
            <mxPoint x="714.4186046511629" y="352" as="sourcePoint" />
            <mxPoint x="695" y="298" as="targetPoint" />
          </mxGeometry>
        </mxCell>
        <mxCell id="TFvU1HtMdlonxRWAqQK4-53" value="" style="endArrow=openThin;html=1;exitX=0.5;exitY=0;exitDx=0;exitDy=0;strokeWidth=3;rounded=0;endFill=0;entryX=0.5;entryY=1;entryDx=0;entryDy=0;entryPerimeter=0;" parent="1" target="TFvU1HtMdlonxRWAqQK4-57" edge="1">
          <mxGeometry x="1" y="71" width="50" height="50" relative="1" as="geometry">
            <mxPoint x="715.5" y="306" as="sourcePoint" />
            <mxPoint x="716" y="238" as="targetPoint" />
            <mxPoint x="61" y="-70" as="offset" />
          </mxGeometry>
        </mxCell>
        <mxCell id="TFvU1HtMdlonxRWAqQK4-54" value="" style="endArrow=openThin;html=1;exitX=0.5;exitY=0;exitDx=0;exitDy=0;strokeWidth=3;rounded=0;endFill=0;exitPerimeter=0;entryX=0.5;entryY=1;entryDx=0;entryDy=0;" parent="1" source="TFvU1HtMdlonxRWAqQK4-57" edge="1">
          <mxGeometry x="1" y="71" width="50" height="50" relative="1" as="geometry">
            <mxPoint x="716" y="208" as="sourcePoint" />
            <mxPoint x="715" y="226" as="targetPoint" />
            <mxPoint x="61" y="-70" as="offset" />
          </mxGeometry>
        </mxCell>
        <mxCell id="TFvU1HtMdlonxRWAqQK4-55" value="" style="endArrow=openThin;html=1;exitX=0.5;exitY=0;exitDx=0;exitDy=0;strokeWidth=3;rounded=0;endFill=0;entryX=0.5;entryY=1;entryDx=0;entryDy=0;" parent="1" source="TFvU1HtMdlonxRWAqQK4-2" target="TFvU1HtMdlonxRWAqQK4-47" edge="1">
          <mxGeometry width="50" height="50" relative="1" as="geometry">
            <mxPoint x="724.5" y="1128" as="sourcePoint" />
            <mxPoint x="724" y="995" as="targetPoint" />
          </mxGeometry>
        </mxCell>
        <mxCell id="TFvU1HtMdlonxRWAqQK4-56" style="edgeStyle=orthogonalEdgeStyle;rounded=0;orthogonalLoop=1;jettySize=auto;html=1;exitX=0.5;exitY=0;exitDx=0;exitDy=0;entryX=0.5;entryY=1;entryDx=0;entryDy=0;strokeColor=#000000;strokeWidth=3;fontSize=18;fontColor=#808080;endArrow=openThin;endFill=0;" parent="1" source="TFvU1HtMdlonxRWAqQK4-46" target="TFvU1HtMdlonxRWAqQK4-66" edge="1">
          <mxGeometry relative="1" as="geometry">
            <mxPoint x="725" y="479" as="sourcePoint" />
            <mxPoint x="715" y="402" as="targetPoint" />
          </mxGeometry>
        </mxCell>
        <mxCell id="TFvU1HtMdlonxRWAqQK4-57" value="" style="strokeWidth=2;html=1;shape=mxgraph.flowchart.start_2;whiteSpace=wrap;rounded=1;shadow=0;sketch=0;strokeColor=#000000;fillColor=default;gradientColor=none;" parent="1" vertex="1">
          <mxGeometry x="705" y="264" width="20" height="20" as="geometry" />
        </mxCell>
        <mxCell id="TFvU1HtMdlonxRWAqQK4-60" value="" style="shape=trapezoid;perimeter=trapezoidPerimeter;whiteSpace=wrap;html=1;fixedSize=1;rotation=-180;size=78;rounded=1;fillColor=#dae8fc;strokeColor=#000000;strokeWidth=3;" parent="1" vertex="1">
          <mxGeometry x="540" y="958" width="348" height="50" as="geometry" />
        </mxCell>
        <mxCell id="TFvU1HtMdlonxRWAqQK4-61" value="&lt;font style=&quot;font-size: 18px;&quot;&gt;Linear&lt;/font&gt;" style="shape=trapezoid;perimeter=trapezoidPerimeter;whiteSpace=wrap;html=1;fixedSize=1;rotation=0;size=-1;rounded=1;fillColor=#dae8fc;strokeColor=#000000;strokeWidth=3;" parent="1" vertex="1">
          <mxGeometry x="634.5" y="638.5" width="160" height="50" as="geometry" />
        </mxCell>
        <mxCell id="TFvU1HtMdlonxRWAqQK4-62" value="&lt;font style=&quot;font-size: 12px;&quot;&gt;&lt;font color=&quot;#000000&quot; style=&quot;font-size: 12px;&quot;&gt;Head 1&lt;/font&gt;&lt;br style=&quot;font-size: 12px;&quot;&gt;&lt;/font&gt;" style="rounded=1;whiteSpace=wrap;html=1;shadow=0;sketch=0;labelBackgroundColor=none;strokeWidth=3;strokeColor=none;fillColor=none;fontColor=#FF99CC;fontSize=12;" parent="1" vertex="1">
          <mxGeometry x="542" y="956" width="100" height="22" as="geometry" />
        </mxCell>
        <mxCell id="TFvU1HtMdlonxRWAqQK4-63" value="&lt;font style=&quot;font-size: 12px;&quot;&gt;&lt;font color=&quot;#000000&quot; style=&quot;font-size: 12px;&quot;&gt;Head ...&lt;/font&gt;&lt;br style=&quot;font-size: 12px;&quot;&gt;&lt;/font&gt;" style="rounded=1;whiteSpace=wrap;html=1;shadow=0;sketch=0;labelBackgroundColor=none;strokeWidth=3;strokeColor=none;fillColor=none;fontColor=#FF99CC;fontSize=12;" parent="1" vertex="1">
          <mxGeometry x="664" y="956" width="100" height="24" as="geometry" />
        </mxCell>
        <mxCell id="TFvU1HtMdlonxRWAqQK4-64" value="&lt;font style=&quot;font-size: 12px;&quot;&gt;&lt;font color=&quot;#000000&quot; style=&quot;font-size: 12px;&quot;&gt;Head H&lt;/font&gt;&lt;br style=&quot;font-size: 12px;&quot;&gt;&lt;/font&gt;" style="rounded=1;whiteSpace=wrap;html=1;shadow=0;sketch=0;labelBackgroundColor=none;strokeWidth=3;strokeColor=none;fillColor=none;fontColor=#FF99CC;fontSize=12;" parent="1" vertex="1">
          <mxGeometry x="803" y="956" width="59" height="22" as="geometry" />
        </mxCell>
        <mxCell id="TFvU1HtMdlonxRWAqQK4-65" value="&lt;font style=&quot;font-size: 18px;&quot;&gt;&lt;font color=&quot;#000000&quot;&gt;Linear&lt;/font&gt;&lt;br&gt;&lt;/font&gt;" style="rounded=1;whiteSpace=wrap;html=1;shadow=0;sketch=0;labelBackgroundColor=none;strokeWidth=3;strokeColor=none;fillColor=none;fontColor=#FF99CC;" parent="1" vertex="1">
          <mxGeometry x="663.5" y="971" width="100" height="25" as="geometry" />
        </mxCell>
        <mxCell id="TFvU1HtMdlonxRWAqQK4-66" value="&lt;font style=&quot;font-size: 18px;&quot;&gt;Linear&lt;/font&gt;" style="shape=trapezoid;perimeter=trapezoidPerimeter;whiteSpace=wrap;html=1;fixedSize=1;rotation=0;size=100;rounded=1;fillColor=#dae8fc;strokeColor=#000000;strokeWidth=3;arcSize=50;" parent="1" vertex="1">
          <mxGeometry x="532" y="354" width="364" height="50" as="geometry" />
        </mxCell>
        <mxCell id="TFvU1HtMdlonxRWAqQK4-67" value="" style="shape=trapezoid;perimeter=trapezoidPerimeter;whiteSpace=wrap;html=1;fixedSize=1;rotation=-180;size=101;rounded=1;fillColor=#dae8fc;strokeColor=#000000;strokeWidth=3;" parent="1" vertex="1">
          <mxGeometry x="540" y="469.5" width="350" height="50" as="geometry" />
        </mxCell>
        <mxCell id="TFvU1HtMdlonxRWAqQK4-68" value="&lt;font style=&quot;font-size: 18px;&quot;&gt;&lt;font color=&quot;#000000&quot;&gt;Linear&lt;/font&gt;&lt;br&gt;&lt;/font&gt;" style="rounded=1;whiteSpace=wrap;html=1;shadow=0;sketch=0;labelBackgroundColor=none;strokeWidth=3;strokeColor=none;fillColor=none;fontColor=#FF99CC;" parent="1" vertex="1">
          <mxGeometry x="666" y="481" width="100" height="25" as="geometry" />
        </mxCell>
        <mxCell id="TFvU1HtMdlonxRWAqQK4-69" value="" style="endArrow=openThin;html=1;strokeWidth=3;rounded=0;endFill=0;exitX=0.5;exitY=0;exitDx=0;exitDy=0;entryX=0.5;entryY=1;entryDx=0;entryDy=0;entryPerimeter=0;" parent="1" source="TFvU1HtMdlonxRWAqQK4-61" target="TFvU1HtMdlonxRWAqQK4-49" edge="1">
          <mxGeometry x="1" y="71" width="50" height="50" relative="1" as="geometry">
            <mxPoint x="725" y="718" as="sourcePoint" />
            <mxPoint x="725.9999999999998" y="699.5000000000002" as="targetPoint" />
            <mxPoint x="61" y="-70" as="offset" />
          </mxGeometry>
        </mxCell>
        <mxCell id="TFvU1HtMdlonxRWAqQK4-70" value="" style="endArrow=openThin;html=1;strokeWidth=3;rounded=0;endFill=0;exitX=0.5;exitY=0;exitDx=0;exitDy=0;exitPerimeter=0;entryX=0.5;entryY=1;entryDx=0;entryDy=0;" parent="1" source="TFvU1HtMdlonxRWAqQK4-49" target="TFvU1HtMdlonxRWAqQK4-11" edge="1">
          <mxGeometry x="1" y="71" width="50" height="50" relative="1" as="geometry">
            <mxPoint x="699.9999999999998" y="648.5" as="sourcePoint" />
            <mxPoint x="716" y="568" as="targetPoint" />
            <mxPoint x="61" y="-70" as="offset" />
          </mxGeometry>
        </mxCell>
        <mxCell id="TFvU1HtMdlonxRWAqQK4-71" value="" style="endArrow=openThin;html=1;strokeWidth=3;rounded=0;endFill=0;exitX=0.5;exitY=0;exitDx=0;exitDy=0;entryX=0.5;entryY=0;entryDx=0;entryDy=0;" parent="1" source="TFvU1HtMdlonxRWAqQK4-11" target="TFvU1HtMdlonxRWAqQK4-67" edge="1">
          <mxGeometry x="1" y="71" width="50" height="50" relative="1" as="geometry">
            <mxPoint x="726" y="608" as="sourcePoint" />
            <mxPoint x="726" y="589" as="targetPoint" />
            <mxPoint x="61" y="-70" as="offset" />
          </mxGeometry>
        </mxCell>
        <mxCell id="TFvU1HtMdlonxRWAqQK4-72" value="" style="endArrow=openThin;html=1;strokeWidth=3;rounded=0;endFill=0;entryX=0.5;entryY=1;entryDx=0;entryDy=0;exitX=0.5;exitY=1;exitDx=0;exitDy=0;" parent="1" source="TFvU1HtMdlonxRWAqQK4-67" target="TFvU1HtMdlonxRWAqQK4-46" edge="1">
          <mxGeometry width="50" height="50" relative="1" as="geometry">
            <mxPoint x="723.5" y="368" as="sourcePoint" />
            <mxPoint x="723.5" y="346" as="targetPoint" />
          </mxGeometry>
        </mxCell>
        <mxCell id="TFvU1HtMdlonxRWAqQK4-73" value="" style="endArrow=openThin;html=1;strokeWidth=3;rounded=0;endFill=0;entryX=1;entryY=0.5;entryDx=0;entryDy=0;entryPerimeter=0;" parent="1" target="TFvU1HtMdlonxRWAqQK4-57" edge="1">
          <mxGeometry width="50" height="50" relative="1" as="geometry">
            <mxPoint x="715" y="538" as="sourcePoint" />
            <mxPoint x="735" y="621" as="targetPoint" />
            <Array as="points">
              <mxPoint x="910" y="540" />
              <mxPoint x="910" y="274" />
            </Array>
          </mxGeometry>
        </mxCell>
        <mxCell id="mX6bYPkht6vrgJl5sCC0-1" value="" style="endArrow=none;html=1;rounded=0;strokeWidth=2;" parent="1" edge="1">
          <mxGeometry width="50" height="50" relative="1" as="geometry">
            <mxPoint x="259.88" y="826" as="sourcePoint" />
            <mxPoint x="259.88" y="836" as="targetPoint" />
          </mxGeometry>
        </mxCell>
        <mxCell id="mX6bYPkht6vrgJl5sCC0-2" value="" style="endArrow=none;html=1;rounded=0;strokeWidth=2;" parent="1" edge="1">
          <mxGeometry width="50" height="50" relative="1" as="geometry">
            <mxPoint x="255" y="830.88" as="sourcePoint" />
            <mxPoint x="265" y="830.88" as="targetPoint" />
          </mxGeometry>
        </mxCell>
        <mxCell id="mX6bYPkht6vrgJl5sCC0-3" value="" style="endArrow=none;html=1;rounded=0;strokeWidth=2;" parent="1" edge="1">
          <mxGeometry width="50" height="50" relative="1" as="geometry">
            <mxPoint x="714.88" y="606" as="sourcePoint" />
            <mxPoint x="714.88" y="616" as="targetPoint" />
          </mxGeometry>
        </mxCell>
        <mxCell id="mX6bYPkht6vrgJl5sCC0-4" value="" style="endArrow=none;html=1;rounded=0;strokeWidth=2;" parent="1" edge="1">
          <mxGeometry width="50" height="50" relative="1" as="geometry">
            <mxPoint x="710" y="610.8800000000001" as="sourcePoint" />
            <mxPoint x="720" y="610.8800000000001" as="targetPoint" />
          </mxGeometry>
        </mxCell>
        <mxCell id="mX6bYPkht6vrgJl5sCC0-8" value="" style="endArrow=none;html=1;rounded=0;strokeWidth=2;" parent="1" edge="1">
          <mxGeometry width="50" height="50" relative="1" as="geometry">
            <mxPoint x="714.8800000000001" y="269" as="sourcePoint" />
            <mxPoint x="714.8800000000001" y="279" as="targetPoint" />
          </mxGeometry>
        </mxCell>
        <mxCell id="mX6bYPkht6vrgJl5sCC0-9" value="" style="endArrow=none;html=1;rounded=0;strokeWidth=2;" parent="1" edge="1">
          <mxGeometry width="50" height="50" relative="1" as="geometry">
            <mxPoint x="710" y="273.8800000000001" as="sourcePoint" />
            <mxPoint x="720" y="273.8800000000001" as="targetPoint" />
          </mxGeometry>
        </mxCell>
      </root>
    </mxGraphModel>
  </diagram>
</mxfile>
